<svg xmlns="http://www.w3.org/2000/svg" viewBox="0 0 48 48" width="48" height="48">
  <!-- Green rounded square background -->
  <rect width="48" height="48" rx="10" fill="#4cae4f"/>
  <!-- Nutrition / apple icon in white -->
  <g transform="translate(8, 8) scale(1.333)">
    <path fill="white" d="M12 3.5c.5-1 1.5-1.5 2.5-1.5-.1 1.1-.7 2-1.4 2.5S11 5 10 5c.1-1 .6-1.8 2-1.5zM17 7c1.1 0 2 .4 2.7 1.1.7.7 1.3 1.6 1.3 3.4 0 2.5-1 4.8-2 6.4-.7 1.1-1.4 2.1-2.5 2.1-.6 0-1-.2-1.5-.5-.5-.2-1-.5-2-.5s-1.5.3-2 .5c-.5.3-.9.5-1.5.5-1.1 0-1.8-1-2.5-2.1-1-1.6-2-3.9-2-6.4 0-1.8.6-2.7 1.3-3.4C7 7.4 7.9 7 9 7c.8 0 1.4.3 1.9.5.4.2.8.5 1.1.5s.7-.3 1.1-.5C13.6 7.3 14.2 7 15 7h2z"/>
  </g>
</svg>
